<svg width="80" height="27" viewBox="0 0 80 27" fill="none" xmlns="http://www.w3.org/2000/svg">
<g filter="url(#filter0_i_244_4)">
<path d="M0.456 5.92C0.456 4.384 1.136 3.136 2.496 2.176C3.856 1.216 5.672 0.735999 7.944 0.735999C9.304 0.735999 10.496 0.895999 11.52 1.216C12.544 1.52 13.328 1.944 13.872 2.488C14.96 3.56 15.504 4.792 15.504 6.184C15.504 7.576 14.944 8.744 13.824 9.688C12.72 10.616 11.304 11.08 9.576 11.08C9.384 11.08 9.096 11.064 8.712 11.032L8.928 9.28C11.056 9.28 12.12 8.28 12.12 6.28C12.12 5.352 11.728 4.568 10.944 3.928C10.128 3.256 8.912 2.92 7.296 2.92C5.68 2.92 4.4 3.336 3.456 4.168C2.896 4.648 2.616 5.168 2.616 5.728C2.616 6.784 3.248 7.384 4.512 7.528L4.224 9.304C3.12 9.256 2.216 8.904 1.512 8.248C0.808 7.592 0.456 6.816 0.456 5.92ZM8.904 4.168L7.848 11.032C9.88 12.008 10.896 13.448 10.896 15.352C10.896 16.744 10.528 17.728 9.792 18.304C9.072 18.864 8.2 19.144 7.176 19.144C6.152 19.144 5.352 18.88 4.776 18.352C4.2 17.824 3.912 17.112 3.912 16.216C3.912 16.008 3.92 15.848 3.936 15.736L5.376 4.624C6.208 4.224 6.912 4.024 7.488 4.024C8.064 4.024 8.536 4.072 8.904 4.168ZM7.872 16.96C8.256 16.96 8.584 16.824 8.856 16.552C9.144 16.28 9.288 15.824 9.288 15.184C9.288 14.048 8.744 13.152 7.656 12.496C7.4 14.368 7.272 15.496 7.272 15.88C7.272 16.248 7.328 16.52 7.44 16.696C7.568 16.872 7.712 16.96 7.872 16.96ZM17.4754 1.336C17.8434 0.951999 18.2914 0.759999 18.8194 0.759999C19.3474 0.759999 19.7954 0.951999 20.1634 1.336C20.5474 1.704 20.7394 2.152 20.7394 2.68C20.7394 3.208 20.5474 3.656 20.1634 4.024C19.7954 4.392 19.3474 4.576 18.8194 4.576C18.2914 4.576 17.8434 4.392 17.4754 4.024C17.1074 3.656 16.9234 3.208 16.9234 2.68C16.9234 2.152 17.1074 1.704 17.4754 1.336ZM16.4914 8.368C16.6514 8.08 16.9554 7.864 17.4034 7.72C17.8514 7.56 18.2914 7.48 18.7234 7.48C19.1714 7.48 19.5634 7.536 19.8994 7.648C19.2754 12.464 18.9634 14.896 18.9634 14.944C18.8834 15.264 18.8434 15.536 18.8434 15.76C18.8434 15.968 18.8594 16.152 18.8914 16.312C18.9554 16.728 19.2434 16.936 19.7554 16.936C20.2834 16.936 20.7634 16.6 21.1954 15.928C21.6434 15.24 21.9794 14.464 22.2034 13.6C22.3154 13.664 22.4914 13.856 22.7314 14.176C22.9714 14.496 23.1154 14.736 23.1634 14.896C22.8434 16.176 22.2994 17.208 21.5314 17.992C20.7634 18.776 19.8434 19.168 18.7714 19.168C17.6994 19.168 16.8994 18.904 16.3714 18.376C15.8594 17.848 15.6034 17.168 15.6034 16.336C15.6034 16.16 15.6114 15.976 15.6274 15.784L16.4914 8.368ZM33.0861 16.048C32.8301 17.04 32.4221 17.808 31.8621 18.352C31.3021 18.88 30.6381 19.144 29.8701 19.144C29.1181 19.144 28.5341 18.992 28.1181 18.688C27.7181 18.384 27.3421 17.872 26.9901 17.152L26.2221 15.664L25.0461 17.368C24.2781 18.472 23.4781 19.024 22.6461 19.024C22.0061 19.024 21.5101 18.848 21.1581 18.496C20.8221 18.128 20.6541 17.688 20.6541 17.176C20.6541 16.312 20.9901 15.64 21.6621 15.16C22.3501 14.664 23.0781 14.416 23.8461 14.416C24.0701 14.416 24.3021 14.44 24.5421 14.488L25.1181 13.624C23.9661 11.544 23.3341 10.416 23.2221 10.24C23.0301 9.968 22.8461 9.832 22.6701 9.832C22.5101 9.832 22.3741 9.896 22.2621 10.024C22.1501 10.136 22.0941 10.296 22.0941 10.504C22.0941 10.712 22.1261 10.944 22.1901 11.2L21.5901 11.368C21.4461 11.176 21.3261 10.904 21.2301 10.552C21.1341 10.184 21.0861 9.896 21.0861 9.688C21.0861 8.904 21.3341 8.296 21.8301 7.864C22.3261 7.416 22.9741 7.192 23.7741 7.192C24.7501 7.192 25.5101 7.72 26.0541 8.776L27.0381 10.672L28.3581 8.608C28.7421 8.016 29.0941 7.624 29.4141 7.432C29.7341 7.224 30.1421 7.12 30.6381 7.12C31.1501 7.12 31.5901 7.304 31.9581 7.672C32.3261 8.024 32.5101 8.448 32.5101 8.944C32.5101 9.792 32.2061 10.448 31.5981 10.912C30.9901 11.376 30.3181 11.608 29.5821 11.608C29.4381 11.608 29.2541 11.592 29.0301 11.56L28.1661 12.832C29.2541 14.944 29.8541 16.104 29.9661 16.312C30.2061 16.744 30.5101 16.96 30.8781 16.96C31.3741 16.96 31.7661 16.52 32.0541 15.64L32.1501 15.352C32.1661 15.304 32.2061 15.144 32.2701 14.872L33.0861 16.048ZM31.0221 8.968C30.8621 8.968 30.7101 9.056 30.5661 9.232C30.4381 9.392 30.1261 9.864 29.6301 10.648C30.0621 10.648 30.4701 10.544 30.8541 10.336C31.2381 10.112 31.4381 9.832 31.4541 9.496C31.4701 9.144 31.3261 8.968 31.0221 8.968ZM23.7501 15.376C23.3021 15.376 22.8701 15.488 22.4541 15.712C22.0381 15.936 21.8301 16.216 21.8301 16.552C21.8301 16.888 21.9741 17.056 22.2621 17.056C22.5981 17.056 23.1581 16.496 23.9421 15.376H23.7501ZM37.9044 13.624C38.8964 13.416 39.6324 13.016 40.1124 12.424C40.6084 11.832 40.8564 11.264 40.8564 10.72C40.8564 10.16 40.7044 9.784 40.4004 9.592C40.1124 9.384 39.7924 9.28 39.4404 9.28C38.6884 9.28 38.0244 9.704 37.4484 10.552C36.8884 11.384 36.6084 12.384 36.6084 13.552C36.6084 14.704 36.8804 15.568 37.4244 16.144C37.9844 16.704 38.6724 16.984 39.4884 16.984C40.6884 16.984 41.8404 16.568 42.9444 15.736C44.0484 14.904 44.9444 13.816 45.6324 12.472C45.9844 12.808 46.3044 13.224 46.5924 13.72C46.0644 14.92 45.1284 16.096 43.7844 17.248C43.1124 17.808 42.3124 18.264 41.3844 18.616C40.4724 18.968 39.5284 19.144 38.5524 19.144C36.9524 19.144 35.6884 18.656 34.7604 17.68C33.7684 16.624 33.2724 15.272 33.2724 13.624C33.2724 11.976 33.8884 10.536 35.1204 9.304C36.3684 8.072 37.8564 7.456 39.5844 7.456C40.8164 7.456 41.8164 7.728 42.5844 8.272C43.3524 8.8 43.7444 9.52 43.7604 10.432C43.7604 11.664 43.2644 12.664 42.2724 13.432C41.2964 14.2 39.9524 14.736 38.2404 15.04L37.9044 13.624ZM47.8361 19.168C46.8601 19.168 46.0921 18.896 45.5321 18.352C44.9721 17.792 44.6921 17.032 44.6921 16.072C44.6921 15.816 45.1241 12.016 45.9881 4.672C46.2121 2.784 46.8121 1.592 47.7881 1.096C48.2361 0.855999 48.7721 0.735999 49.3961 0.735999C51.5081 0.735999 52.5641 1.712 52.5641 3.664C52.5641 3.824 52.5561 3.992 52.5401 4.168C52.3801 6.312 51.0361 8.496 48.5081 10.72C48.4281 11.504 48.3401 12.264 48.2441 13C48.0521 14.648 47.9561 15.56 47.9561 15.736C47.9561 16.568 48.3161 16.984 49.0361 16.984C49.8201 16.984 50.5481 16.536 51.2201 15.64C51.9081 14.728 52.4361 13.568 52.8041 12.16C52.9481 12.208 53.1481 12.344 53.4041 12.568C53.6601 12.776 53.8361 12.96 53.9321 13.12C53.6761 14.448 53.1001 15.72 52.2041 16.936C51.7561 17.56 51.1881 18.072 50.5001 18.472C49.7161 18.936 48.8281 19.168 47.8361 19.168ZM48.7721 8.32C50.2441 6.704 50.9801 5.256 50.9801 3.976C50.9801 3.208 50.6921 2.824 50.1161 2.824C49.7481 2.856 49.5001 3.096 49.3721 3.544C49.2601 3.992 49.1481 4.72 49.0361 5.728C48.9401 6.736 48.8761 7.36 48.8441 7.6L48.7721 8.32ZM53.7801 1.336C54.1481 0.951999 54.5961 0.759999 55.1241 0.759999C55.6521 0.759999 56.1001 0.951999 56.4681 1.336C56.8521 1.704 57.0441 2.152 57.0441 2.68C57.0441 3.208 56.8521 3.656 56.4681 4.024C56.1001 4.392 55.6521 4.576 55.1241 4.576C54.5961 4.576 54.1481 4.392 53.7801 4.024C53.4121 3.656 53.2281 3.208 53.2281 2.68C53.2281 2.152 53.4121 1.704 53.7801 1.336ZM52.7961 8.368C52.9561 8.08 53.2601 7.864 53.7081 7.72C54.1561 7.56 54.5961 7.48 55.0281 7.48C55.4761 7.48 55.8681 7.536 56.2041 7.648C55.5801 12.464 55.2681 14.896 55.2681 14.944C55.1881 15.264 55.1481 15.536 55.1481 15.76C55.1481 15.968 55.1641 16.152 55.1961 16.312C55.2601 16.728 55.5481 16.936 56.0601 16.936C56.5881 16.936 57.0681 16.6 57.5001 15.928C57.9481 15.24 58.2841 14.464 58.5081 13.6C58.6201 13.664 58.7961 13.856 59.0361 14.176C59.2761 14.496 59.4201 14.736 59.4681 14.896C59.1481 16.176 58.6041 17.208 57.8361 17.992C57.0681 18.776 56.1481 19.168 55.0761 19.168C54.0041 19.168 53.2041 18.904 52.6761 18.376C52.1641 17.848 51.9081 17.168 51.9081 16.336C51.9081 16.16 51.9161 15.976 51.9321 15.784L52.7961 8.368ZM63.9908 19.024C64.8708 20.576 65.3108 21.856 65.3108 22.864C65.3108 23.888 64.9988 24.712 64.3748 25.336C63.7668 25.976 62.9668 26.296 61.9748 26.296C60.9828 26.296 60.1668 26.016 59.5268 25.456C58.9028 24.912 58.5908 24.152 58.5908 23.176C58.5908 22.984 58.6228 22.6 58.6868 22.024L59.4308 15.544C58.4868 14.28 57.7108 13.272 57.1028 12.52C57.6468 11.768 58.1028 11.392 58.4708 11.392C58.6468 11.392 58.8068 11.48 58.9508 11.656C59.1108 11.832 59.3748 12.16 59.7428 12.64L60.6548 4.576C60.7828 3.52 61.0388 2.664 61.4228 2.008C61.9348 1.16 62.8788 0.735999 64.2548 0.735999C65.2308 0.735999 65.9748 1.008 66.4868 1.552C66.9988 2.08 67.2548 2.816 67.2548 3.76C67.2548 5.024 66.8388 6.272 66.0068 7.504C65.1908 8.736 64.2388 9.816 63.1508 10.744L62.5508 16.528C62.8228 16.832 63.2068 16.984 63.7028 16.984C64.6948 16.984 65.5188 16.568 66.1748 15.736C66.8468 14.888 67.4308 13.696 67.9268 12.16C68.1508 12.288 68.3828 12.456 68.6228 12.664C68.8788 12.856 69.0228 12.992 69.0547 13.072C68.6868 14.848 68.0468 16.224 67.1348 17.2C66.2228 18.176 65.1748 18.784 63.9908 19.024ZM65.1188 2.824C65.0388 2.808 64.9588 2.8 64.8788 2.8C64.4468 2.8 64.1588 3.08 64.0148 3.64C63.8708 4.2 63.6948 5.488 63.4868 7.504L63.3908 8.416C64.0788 7.712 64.6308 6.968 65.0468 6.184C65.4788 5.384 65.6948 4.664 65.6948 4.024C65.6948 3.368 65.5028 2.968 65.1188 2.824ZM61.9028 22.648C61.8868 22.728 61.8788 22.896 61.8788 23.152C61.8788 23.424 61.9588 23.648 62.1188 23.824C62.2788 24 62.4868 24.088 62.7428 24.088C63.0148 24.088 63.2548 23.976 63.4628 23.752C63.6708 23.544 63.7747 23.216 63.7747 22.768C63.7747 21.92 63.2708 20.76 62.2628 19.288L61.9028 22.648ZM71.3184 26.128C70.4064 26.128 69.6224 25.848 68.9664 25.288C68.3104 24.744 67.9824 23.944 67.9824 22.888C67.9824 21.592 68.6384 20.328 69.9504 19.096C69.0224 19.016 68.2784 18.712 67.7184 18.184C67.1584 17.656 66.8784 16.912 66.8784 15.952C66.8784 15.504 66.9344 14.832 67.0464 13.936C67.1584 13.04 67.2784 12.072 67.4064 11.032C67.5344 9.992 67.6704 8.888 67.8144 7.72C68.3104 7.544 68.7664 7.456 69.1824 7.456C69.5984 7.456 69.9104 7.472 70.1184 7.504C70.3264 7.536 70.5264 7.656 70.7184 7.864C70.9104 8.072 71.0064 8.368 71.0064 8.752L70.2144 14.872C70.1824 15.128 70.1664 15.304 70.1664 15.4C70.1664 16.344 70.5984 16.816 71.4624 16.816C72.2464 16.816 72.8864 16.448 73.3824 15.712C73.4304 15.344 73.5504 14.288 73.7424 12.544C73.9344 10.784 74.0944 9.416 74.2224 8.44C74.3664 8.136 74.6624 7.896 75.1104 7.72C75.5744 7.544 75.9504 7.456 76.2384 7.456C76.7504 7.456 77.2144 7.52 77.6304 7.648L76.5024 16.504C78.3744 16.84 79.4944 18.128 79.8624 20.368C79.7984 20.672 79.4944 21.152 78.9504 21.808C78.6304 19.808 77.7504 18.592 76.3104 18.16L75.9264 21.16C75.7504 22.6 75.2944 23.784 74.5584 24.712C73.8224 25.656 72.7424 26.128 71.3184 26.128ZM69.8544 22.432C69.8544 22.96 69.9824 23.352 70.2384 23.608C70.4944 23.864 70.8304 23.992 71.2464 23.992C71.6784 23.992 72.0064 23.816 72.2304 23.464C72.4544 23.112 72.6304 22.408 72.7584 21.352L73.0704 18.712C70.9744 19.8 69.9024 21.04 69.8544 22.432Z" fill="black"/>
</g>
<defs>
<filter id="filter0_i_244_4" x="0.456055" y="0.735962" width="79.4065" height="29.5601" filterUnits="userSpaceOnUse" color-interpolation-filters="sRGB">
<feFlood flood-opacity="0" result="BackgroundImageFix"/>
<feBlend mode="normal" in="SourceGraphic" in2="BackgroundImageFix" result="shape"/>
<feColorMatrix in="SourceAlpha" type="matrix" values="0 0 0 0 0 0 0 0 0 0 0 0 0 0 0 0 0 0 127 0" result="hardAlpha"/>
<feOffset dy="4"/>
<feGaussianBlur stdDeviation="2"/>
<feComposite in2="hardAlpha" operator="arithmetic" k2="-1" k3="1"/>
<feColorMatrix type="matrix" values="0 0 0 0 0 0 0 0 0 0 0 0 0 0 0 0 0 0 0.25 0"/>
<feBlend mode="normal" in2="shape" result="effect1_innerShadow_244_4"/>
</filter>
</defs>
</svg>
